<svg width="200" height="199" viewBox="0 0 200 199" fill="none" xmlns="http://www.w3.org/2000/svg">
<path d="M100 172.815C99.2486 172.815 98.4553 172.746 97.6206 172.608C96.7859 172.47 96.0119 172.262 95.2988 171.986C78.9748 165.767 66.0035 155.22 56.3849 140.345C46.7663 125.47 41.957 109.367 41.957 92.0376V56.5244C41.957 53.6831 42.7669 51.1238 44.3866 48.8463C46.0007 46.5689 48.093 44.9189 50.6635 43.8962L95.3154 27.3129C96.9296 26.7269 98.4912 26.434 100 26.434C101.509 26.434 103.074 26.7269 104.694 27.3129L149.337 43.8962C151.902 44.9244 153.994 46.5744 155.614 48.8463C157.234 51.1238 158.044 53.6831 158.044 56.5244V92.0376C158.044 109.367 153.234 125.47 143.616 140.345C133.997 155.22 121.029 165.767 104.71 171.986C103.986 172.262 103.209 172.47 102.38 172.608C101.551 172.746 100.758 172.815 100 172.815ZM100 165.004C114.373 160.444 126.258 151.323 135.656 137.642C145.053 123.961 149.752 108.759 149.752 92.0376V56.3669C149.752 55.3055 149.459 54.3492 148.873 53.498C148.292 52.6467 147.469 52.011 146.402 51.5909L101.758 35.0075C101.228 34.7864 100.642 34.6759 100 34.6759C99.3591 34.6759 98.7731 34.7864 98.2425 35.0075L53.5989 51.5909C52.532 52.011 51.7083 52.6467 51.1279 53.498C50.5419 54.3492 50.2489 55.3055 50.2489 56.3669V92.0376C50.2489 108.759 54.9477 123.961 64.3452 137.642C73.7427 151.323 85.6277 160.444 100 165.004Z" fill="white"/>
<path d="M76 158L88 140M112 140L124 158M100 143.857V141.286M100 150.286V147.714M100 156.714V154.143" stroke="white" stroke-width="3.98" stroke-linecap="round" stroke-linejoin="round"/>
<path d="M83.6814 115H72.1614V74.4667H62.2058V65.2222H83.6814V115ZM137.32 115H99.7022V107.533L118.902 89.4C120.941 87.4563 122.316 85.797 123.027 84.4222C123.738 83 124.093 81.6015 124.093 80.2267C124.093 78.2356 123.406 76.7185 122.031 75.6756C120.704 74.5852 118.736 74.04 116.129 74.04C113.948 74.04 111.981 74.4667 110.227 75.32C108.473 76.1259 107.003 77.3585 105.818 79.0178L97.4267 73.6133C99.3704 70.7215 102.049 68.4696 105.462 66.8578C108.876 65.1985 112.787 64.3689 117.196 64.3689C120.893 64.3689 124.117 64.9852 126.867 66.2178C129.664 67.403 131.821 69.1096 133.338 71.3378C134.902 73.5185 135.684 76.1022 135.684 79.0889C135.684 81.7911 135.116 84.3274 133.978 86.6978C132.84 89.0681 130.636 91.7704 127.364 94.8044L115.916 105.613H137.32V115Z" fill="white"/>
</svg>
