<svg width="200" height="199" viewBox="0 0 200 199" fill="none" xmlns="http://www.w3.org/2000/svg">
<path d="M100 172.815C99.2486 172.815 98.4553 172.746 97.6206 172.608C96.7859 172.47 96.0119 172.262 95.2988 171.986C78.9748 165.767 66.0035 155.22 56.3849 140.345C46.7663 125.47 41.957 109.367 41.957 92.0376V56.5244C41.957 53.6831 42.7669 51.1238 44.3866 48.8463C46.0007 46.5689 48.093 44.9189 50.6635 43.8962L95.3154 27.3129C96.9296 26.7269 98.4912 26.434 100 26.434C101.509 26.434 103.074 26.7269 104.694 27.3129L149.337 43.8962C151.902 44.9244 153.994 46.5744 155.614 48.8463C157.234 51.1238 158.044 53.6831 158.044 56.5244V92.0376C158.044 109.367 153.234 125.47 143.616 140.345C133.997 155.22 121.029 165.767 104.71 171.986C103.986 172.262 103.209 172.47 102.38 172.608C101.551 172.746 100.758 172.815 100 172.815ZM100 165.004C114.373 160.444 126.258 151.323 135.656 137.642C145.053 123.961 149.752 108.759 149.752 92.0376V56.3669C149.752 55.3055 149.459 54.3492 148.873 53.498C148.292 52.6467 147.469 52.011 146.402 51.5909L101.758 35.0075C101.228 34.7864 100.642 34.6759 100 34.6759C99.3591 34.6759 98.7731 34.7864 98.2425 35.0075L53.5989 51.5909C52.532 52.011 51.7083 52.6467 51.1279 53.498C50.5419 54.3492 50.2489 55.3055 50.2489 56.3669V92.0376C50.2489 108.759 54.9477 123.961 64.3452 137.642C73.7427 151.323 85.6277 160.444 100 165.004Z" fill="white"/>
<path d="M79.625 63.3125H76.3125V106.375C76.3125 107.254 76.6615 108.096 77.2827 108.717C77.9039 109.339 78.7465 109.688 79.625 109.688H97.8438V106.375H79.625V63.3125ZM111.094 66.625V69.9375H117.033L104.469 82.5018L97.3585 75.3915C97.0479 75.081 96.6267 74.9066 96.1875 74.9066C95.7483 74.9066 95.3271 75.081 95.0165 75.3915L82.9375 87.4706L85.2794 89.8125L96.1875 78.9044L103.298 86.0147C103.608 86.3252 104.03 86.4996 104.469 86.4996C104.908 86.4996 105.329 86.3252 105.64 86.0147L119.375 72.2794V78.2188H122.688V66.625H111.094ZM110.232 94.5543C109.064 93.6269 107.616 93.1231 106.125 93.125H101.156V98.0938C101.156 101.747 104.128 104.719 107.781 104.719H109.438V109.688H112.75V104.719H114.406C118.973 104.719 122.688 101.004 122.688 96.4375V89.8125H117.719C116.15 89.8146 114.615 90.2611 113.29 91.1004C111.965 91.9396 110.905 93.1372 110.232 94.5543ZM109.438 101.406H107.781C105.954 101.406 104.469 99.9206 104.469 98.0938V96.4375H106.125C107.952 96.4375 109.438 97.9232 109.438 99.75V101.406ZM119.375 96.4375C119.375 99.1769 117.146 101.406 114.406 101.406H112.75V98.0938C112.75 95.3543 114.979 93.125 117.719 93.125H119.375V96.4375Z" fill="white"/>
<path d="M81.2476 126.96L76.3409 138H74.0298L78.812 127.316H73.5853V129.484H71.6653V125.556H81.2476V126.96ZM87.2083 138.16C86.2128 138.16 85.3239 137.905 84.5417 137.396C83.7594 136.886 83.1491 136.151 82.7106 135.191C82.272 134.231 82.0528 133.093 82.0528 131.778C82.0528 130.462 82.272 129.324 82.7106 128.364C83.1491 127.404 83.7594 126.67 84.5417 126.16C85.3239 125.65 86.2128 125.396 87.2083 125.396C88.2157 125.396 89.1046 125.65 89.875 126.16C90.6572 126.67 91.2676 127.404 91.7061 128.364C92.1446 129.324 92.3639 130.462 92.3639 131.778C92.3639 133.093 92.1446 134.231 91.7061 135.191C91.2676 136.151 90.6572 136.886 89.875 137.396C89.1046 137.905 88.2157 138.16 87.2083 138.16ZM87.2083 136.329C88.1328 136.329 88.8676 135.944 89.4128 135.173C89.958 134.391 90.2306 133.259 90.2306 131.778C90.2306 130.284 89.958 129.153 89.4128 128.382C88.8676 127.6 88.1328 127.209 87.2083 127.209C86.2957 127.209 85.5669 127.6 85.0217 128.382C84.4765 129.164 84.2039 130.296 84.2039 131.778C84.2039 133.259 84.4706 134.391 85.0039 135.173C85.5491 135.944 86.2839 136.329 87.2083 136.329ZM94.6624 138.124C94.2832 138.124 93.9632 137.994 93.7024 137.733C93.4417 137.473 93.3113 137.147 93.3113 136.756C93.3113 136.364 93.4417 136.044 93.7024 135.796C93.9632 135.535 94.2832 135.404 94.6624 135.404C95.0417 135.404 95.3617 135.535 95.6224 135.796C95.8832 136.044 96.0135 136.364 96.0135 136.756C96.0135 137.147 95.8832 137.473 95.6224 137.733C95.3617 137.994 95.0417 138.124 94.6624 138.124ZM102.115 138.16C101.119 138.16 100.23 137.905 99.4479 137.396C98.6657 136.886 98.0553 136.151 97.6168 135.191C97.1783 134.231 96.959 133.093 96.959 131.778C96.959 130.462 97.1783 129.324 97.6168 128.364C98.0553 127.404 98.6657 126.67 99.4479 126.16C100.23 125.65 101.119 125.396 102.115 125.396C103.122 125.396 104.011 125.65 104.781 126.16C105.563 126.67 106.174 127.404 106.612 128.364C107.051 129.324 107.27 130.462 107.27 131.778C107.27 133.093 107.051 134.231 106.612 135.191C106.174 136.151 105.563 136.886 104.781 137.396C104.011 137.905 103.122 138.16 102.115 138.16ZM102.115 136.329C103.039 136.329 103.774 135.944 104.319 135.173C104.864 134.391 105.137 133.259 105.137 131.778C105.137 130.284 104.864 129.153 104.319 128.382C103.774 127.6 103.039 127.209 102.115 127.209C101.202 127.209 100.473 127.6 99.9279 128.382C99.3827 129.164 99.1101 130.296 99.1101 131.778C99.1101 133.259 99.3768 134.391 99.9101 135.173C100.455 135.944 101.19 136.329 102.115 136.329ZM112.786 138.16C111.791 138.16 110.902 137.905 110.12 137.396C109.338 136.886 108.727 136.151 108.289 135.191C107.85 134.231 107.631 133.093 107.631 131.778C107.631 130.462 107.85 129.324 108.289 128.364C108.727 127.404 109.338 126.67 110.12 126.16C110.902 125.65 111.791 125.396 112.786 125.396C113.794 125.396 114.683 125.65 115.453 126.16C116.235 126.67 116.846 127.404 117.284 128.364C117.723 129.324 117.942 130.462 117.942 131.778C117.942 133.093 117.723 134.231 117.284 135.191C116.846 136.151 116.235 136.886 115.453 137.396C114.683 137.905 113.794 138.16 112.786 138.16ZM112.786 136.329C113.711 136.329 114.446 135.944 114.991 135.173C115.536 134.391 115.809 133.259 115.809 131.778C115.809 130.284 115.536 129.153 114.991 128.382C114.446 127.6 113.711 127.209 112.786 127.209C111.874 127.209 111.145 127.6 110.6 128.382C110.055 129.164 109.782 130.296 109.782 131.778C109.782 133.259 110.049 134.391 110.582 135.173C111.127 135.944 111.862 136.329 112.786 136.329ZM123.458 138.16C122.463 138.16 121.574 137.905 120.792 137.396C120.009 136.886 119.399 136.151 118.961 135.191C118.522 134.231 118.303 133.093 118.303 131.778C118.303 130.462 118.522 129.324 118.961 128.364C119.399 127.404 120.009 126.67 120.792 126.16C121.574 125.65 122.463 125.396 123.458 125.396C124.466 125.396 125.355 125.65 126.125 126.16C126.907 126.67 127.518 127.404 127.956 128.364C128.395 129.324 128.614 130.462 128.614 131.778C128.614 133.093 128.395 134.231 127.956 135.191C127.518 136.151 126.907 136.886 126.125 137.396C125.355 137.905 124.466 138.16 123.458 138.16ZM123.458 136.329C124.383 136.329 125.118 135.944 125.663 135.173C126.208 134.391 126.481 133.259 126.481 131.778C126.481 130.284 126.208 129.153 125.663 128.382C125.118 127.6 124.383 127.209 123.458 127.209C122.546 127.209 121.817 127.6 121.272 128.382C120.726 129.164 120.454 130.296 120.454 131.778C120.454 133.259 120.721 134.391 121.254 135.173C121.799 135.944 122.534 136.329 123.458 136.329Z" fill="white"/>
</svg>
