<svg width="200" height="199" viewBox="0 0 200 199" fill="none" xmlns="http://www.w3.org/2000/svg">
<path d="M100 172.815C99.2486 172.815 98.4553 172.746 97.6206 172.608C96.7859 172.47 96.0119 172.262 95.2988 171.986C78.9748 165.767 66.0035 155.22 56.3849 140.345C46.7663 125.47 41.957 109.367 41.957 92.0376V56.5244C41.957 53.6831 42.7669 51.1238 44.3866 48.8463C46.0007 46.5689 48.093 44.9189 50.6635 43.8962L95.3154 27.3129C96.9296 26.7269 98.4912 26.434 100 26.434C101.509 26.434 103.074 26.7269 104.694 27.3129L149.337 43.8962C151.902 44.9244 153.994 46.5744 155.614 48.8463C157.234 51.1238 158.044 53.6831 158.044 56.5244V92.0376C158.044 109.367 153.234 125.47 143.616 140.345C133.997 155.22 121.029 165.767 104.71 171.986C103.986 172.262 103.209 172.47 102.38 172.608C101.551 172.746 100.758 172.815 100 172.815ZM100 165.004C114.373 160.444 126.258 151.323 135.656 137.642C145.053 123.961 149.752 108.759 149.752 92.0376V56.3669C149.752 55.3055 149.459 54.3492 148.873 53.498C148.292 52.6467 147.469 52.011 146.402 51.5909L101.758 35.0075C101.228 34.7864 100.642 34.6759 100 34.6759C99.3591 34.6759 98.7731 34.7864 98.2425 35.0075L53.5989 51.5909C52.532 52.011 51.7083 52.6467 51.1279 53.498C50.5419 54.3492 50.2489 55.3055 50.2489 56.3669V92.0376C50.2489 108.759 54.9477 123.961 64.3452 137.642C73.7427 151.323 85.6277 160.444 100 165.004Z" fill="white"/>
<path d="M81.23 68.16C73.9592 68.16 68 74.1009 68 81.3522C68 84.162 68.8971 86.7734 70.4161 88.9198L79.6159 104.824C80.9043 106.507 81.7611 106.187 82.8327 104.735L92.9795 87.467C93.1843 87.0953 93.3449 86.7009 93.4854 86.2977C94.1288 84.7283 94.4598 83.0484 94.46 81.3522C94.46 74.1009 88.5027 68.16 81.23 68.16ZM81.23 74.3416C85.1461 74.3416 88.2608 77.4481 88.2608 81.3529C88.2608 85.2576 85.1454 88.3629 81.23 88.3629C77.3145 88.3629 74.1992 85.257 74.1992 81.3529C74.1992 77.4488 77.3152 74.3416 81.23 74.3416Z" fill="white"/>
<path fill-rule="evenodd" clip-rule="evenodd" d="M123.573 71.5696C122.157 71.6011 120.738 71.6609 119.316 71.7661L119.535 75.2513C120.901 75.1523 122.269 75.0886 123.638 75.0604L123.573 71.5696ZM116.028 72.0862C113.842 72.3577 111.637 72.7445 109.457 73.3663L110.278 76.7438C112.259 76.1793 114.312 75.8145 116.396 75.5556L116.028 72.0862ZM106.193 74.5356C105.54 74.8239 104.908 75.1571 104.301 75.5329L104.298 75.5361L104.295 75.5373C103.428 76.0829 102.515 76.7753 101.77 77.7814C101.23 78.5103 100.789 79.432 100.685 80.5219L103.895 80.8778C103.919 80.6221 104.05 80.2844 104.286 79.9669H104.287V79.9656C104.667 79.4515 105.236 78.9847 105.914 78.5575L105.916 78.5563C106.399 78.259 106.902 77.9946 107.421 77.765L106.193 74.5356ZM104.541 82.4327L102.46 85.1007C102.953 85.5518 103.471 85.8983 103.97 86.1881L103.976 86.1912L103.983 86.195C105.641 87.1381 107.351 87.6705 108.936 88.1758L109.847 84.8254C108.262 84.3202 106.769 83.8325 105.488 83.1055C105.122 82.8926 104.8 82.6702 104.541 82.4327ZM112.942 85.7679L112.052 89.1239L112.473 89.2549L112.99 89.42C114.7 89.9763 116.338 90.5704 117.802 91.3925L119.287 88.2929C117.517 87.2982 115.679 86.648 113.908 86.0722L113.903 86.0709L113.373 85.9015L112.942 85.7679ZM122.308 90.6189L120.026 93.0885C120.565 93.6725 120.969 94.375 121.165 95.1007L121.167 95.1045L121.168 95.1102C121.402 95.9575 121.403 96.9542 121.22 97.9609L124.385 98.6363C124.643 97.215 124.685 95.6545 124.26 94.1141C123.89 92.7521 123.184 91.5689 122.308 90.6189ZM120.114 100.065C119.765 100.433 119.38 100.765 118.964 101.055H118.963C117.829 101.853 116.513 102.454 115.116 102.971L116.158 106.274C117.686 105.709 119.256 105.016 120.722 103.984L120.726 103.981L120.728 103.98C121.33 103.558 121.887 103.075 122.391 102.539L120.114 100.065ZM112.151 103.901C110.127 104.446 108.058 104.86 105.964 105.212L106.458 108.663C108.613 108.301 110.777 107.868 112.928 107.29L112.151 103.901ZM102.813 105.688C100.705 105.976 98.5861 106.211 96.4605 106.411L96.739 109.89C98.8973 109.687 101.06 109.448 103.219 109.153L102.813 105.688ZM93.2658 106.685C91.1357 106.854 89.0007 106.991 86.8637 107.107L87.025 110.595C89.1827 110.478 91.3424 110.339 93.5014 110.168L93.2658 106.685ZM83.6526 107.265C82.3718 107.325 81.0879 107.374 79.8008 107.419L79.9066 110.91C81.2018 110.865 82.4966 110.814 83.7912 110.755L83.6526 107.265Z" fill="white"/>
<path d="M79.3809 131.476C80.0802 131.748 80.6194 132.139 80.9987 132.649C81.3898 133.159 81.5853 133.763 81.5853 134.462C81.5853 135.209 81.3779 135.861 80.9631 136.418C80.5483 136.975 79.9557 137.407 79.1853 137.716C78.4268 138.012 77.5379 138.16 76.5187 138.16C75.5113 138.16 74.6283 138.012 73.8698 137.716C73.1113 137.407 72.5246 136.975 72.1098 136.418C71.695 135.861 71.4876 135.209 71.4876 134.462C71.4876 133.763 71.6772 133.159 72.0565 132.649C72.4357 132.139 72.9809 131.748 73.692 131.476C73.1231 131.203 72.6846 130.841 72.3765 130.391C72.0802 129.941 71.932 129.419 71.932 128.827C71.932 128.127 72.1216 127.523 72.5009 127.013C72.892 126.492 73.4313 126.095 74.1187 125.822C74.8179 125.538 75.6179 125.396 76.5187 125.396C77.4313 125.396 78.2372 125.538 78.9365 125.822C79.6357 126.095 80.175 126.492 80.5542 127.013C80.9453 127.523 81.1409 128.127 81.1409 128.827C81.1409 129.419 80.9868 129.941 80.6787 130.391C80.3824 130.841 79.9498 131.203 79.3809 131.476ZM76.5187 126.996C75.772 126.996 75.1735 127.167 74.7231 127.511C74.2846 127.855 74.0653 128.317 74.0653 128.898C74.0653 129.479 74.2846 129.935 74.7231 130.267C75.1616 130.599 75.7602 130.764 76.5187 130.764C77.2891 130.764 77.8994 130.599 78.3498 130.267C78.8002 129.935 79.0253 129.479 79.0253 128.898C79.0253 128.317 78.8002 127.855 78.3498 127.511C77.8994 127.167 77.2891 126.996 76.5187 126.996ZM76.5187 136.56C77.4194 136.56 78.1305 136.37 78.652 135.991C79.1735 135.6 79.4342 135.073 79.4342 134.409C79.4342 133.745 79.1735 133.224 78.652 132.844C78.1305 132.465 77.4194 132.276 76.5187 132.276C75.6298 132.276 74.9305 132.465 74.4209 132.844C73.9113 133.224 73.6565 133.745 73.6565 134.409C73.6565 135.073 73.9113 135.6 74.4209 135.991C74.9305 136.37 75.6298 136.56 76.5187 136.56ZM87.2083 138.16C86.2128 138.16 85.3239 137.905 84.5417 137.396C83.7594 136.886 83.1491 136.151 82.7106 135.191C82.272 134.231 82.0528 133.093 82.0528 131.778C82.0528 130.462 82.272 129.324 82.7106 128.364C83.1491 127.404 83.7594 126.67 84.5417 126.16C85.3239 125.65 86.2128 125.396 87.2083 125.396C88.2157 125.396 89.1046 125.65 89.875 126.16C90.6572 126.67 91.2676 127.404 91.7061 128.364C92.1446 129.324 92.3639 130.462 92.3639 131.778C92.3639 133.093 92.1446 134.231 91.7061 135.191C91.2676 136.151 90.6572 136.886 89.875 137.396C89.1046 137.905 88.2157 138.16 87.2083 138.16ZM87.2083 136.329C88.1328 136.329 88.8676 135.944 89.4128 135.173C89.958 134.391 90.2306 133.259 90.2306 131.778C90.2306 130.284 89.958 129.153 89.4128 128.382C88.8676 127.6 88.1328 127.209 87.2083 127.209C86.2957 127.209 85.5669 127.6 85.0217 128.382C84.4765 129.164 84.2039 130.296 84.2039 131.778C84.2039 133.259 84.4706 134.391 85.0039 135.173C85.5491 135.944 86.2839 136.329 87.2083 136.329ZM94.6624 138.124C94.2832 138.124 93.9632 137.994 93.7024 137.733C93.4417 137.473 93.3113 137.147 93.3113 136.756C93.3113 136.364 93.4417 136.044 93.7024 135.796C93.9632 135.535 94.2832 135.404 94.6624 135.404C95.0417 135.404 95.3617 135.535 95.6224 135.796C95.8832 136.044 96.0135 136.364 96.0135 136.756C96.0135 137.147 95.8832 137.473 95.6224 137.733C95.3617 137.994 95.0417 138.124 94.6624 138.124ZM102.115 138.16C101.119 138.16 100.23 137.905 99.4479 137.396C98.6657 136.886 98.0553 136.151 97.6168 135.191C97.1783 134.231 96.959 133.093 96.959 131.778C96.959 130.462 97.1783 129.324 97.6168 128.364C98.0553 127.404 98.6657 126.67 99.4479 126.16C100.23 125.65 101.119 125.396 102.115 125.396C103.122 125.396 104.011 125.65 104.781 126.16C105.563 126.67 106.174 127.404 106.612 128.364C107.051 129.324 107.27 130.462 107.27 131.778C107.27 133.093 107.051 134.231 106.612 135.191C106.174 136.151 105.563 136.886 104.781 137.396C104.011 137.905 103.122 138.16 102.115 138.16ZM102.115 136.329C103.039 136.329 103.774 135.944 104.319 135.173C104.864 134.391 105.137 133.259 105.137 131.778C105.137 130.284 104.864 129.153 104.319 128.382C103.774 127.6 103.039 127.209 102.115 127.209C101.202 127.209 100.473 127.6 99.9279 128.382C99.3827 129.164 99.1101 130.296 99.1101 131.778C99.1101 133.259 99.3768 134.391 99.9101 135.173C100.455 135.944 101.19 136.329 102.115 136.329ZM112.786 138.16C111.791 138.16 110.902 137.905 110.12 137.396C109.338 136.886 108.727 136.151 108.289 135.191C107.85 134.231 107.631 133.093 107.631 131.778C107.631 130.462 107.85 129.324 108.289 128.364C108.727 127.404 109.338 126.67 110.12 126.16C110.902 125.65 111.791 125.396 112.786 125.396C113.794 125.396 114.683 125.65 115.453 126.16C116.235 126.67 116.846 127.404 117.284 128.364C117.723 129.324 117.942 130.462 117.942 131.778C117.942 133.093 117.723 134.231 117.284 135.191C116.846 136.151 116.235 136.886 115.453 137.396C114.683 137.905 113.794 138.16 112.786 138.16ZM112.786 136.329C113.711 136.329 114.446 135.944 114.991 135.173C115.536 134.391 115.809 133.259 115.809 131.778C115.809 130.284 115.536 129.153 114.991 128.382C114.446 127.6 113.711 127.209 112.786 127.209C111.874 127.209 111.145 127.6 110.6 128.382C110.055 129.164 109.782 130.296 109.782 131.778C109.782 133.259 110.049 134.391 110.582 135.173C111.127 135.944 111.862 136.329 112.786 136.329ZM123.458 138.16C122.463 138.16 121.574 137.905 120.792 137.396C120.009 136.886 119.399 136.151 118.961 135.191C118.522 134.231 118.303 133.093 118.303 131.778C118.303 130.462 118.522 129.324 118.961 128.364C119.399 127.404 120.009 126.67 120.792 126.16C121.574 125.65 122.463 125.396 123.458 125.396C124.466 125.396 125.355 125.65 126.125 126.16C126.907 126.67 127.518 127.404 127.956 128.364C128.395 129.324 128.614 130.462 128.614 131.778C128.614 133.093 128.395 134.231 127.956 135.191C127.518 136.151 126.907 136.886 126.125 137.396C125.355 137.905 124.466 138.16 123.458 138.16ZM123.458 136.329C124.383 136.329 125.118 135.944 125.663 135.173C126.208 134.391 126.481 133.259 126.481 131.778C126.481 130.284 126.208 129.153 125.663 128.382C125.118 127.6 124.383 127.209 123.458 127.209C122.546 127.209 121.817 127.6 121.272 128.382C120.726 129.164 120.454 130.296 120.454 131.778C120.454 133.259 120.721 134.391 121.254 135.173C121.799 135.944 122.534 136.329 123.458 136.329Z" fill="white"/>
</svg>
