<svg width="199" height="199" viewBox="0 0 199 199" fill="none" xmlns="http://www.w3.org/2000/svg">
<path d="M99.5004 172.815C98.7486 172.815 97.9553 172.746 97.1206 172.608C96.2859 172.47 95.5119 172.262 94.7988 171.986C78.4748 165.767 65.5035 155.22 55.8849 140.345C46.2663 125.47 41.457 109.367 41.457 92.0378V56.5245C41.457 53.6833 42.2669 51.1239 43.8866 48.8465C45.5007 46.569 47.593 44.919 50.1635 43.8963L94.8154 27.313C96.4296 26.7271 97.9912 26.4341 99.5004 26.4341C101.009 26.4341 102.574 26.7271 104.194 27.313L148.837 43.8963C151.402 44.9245 153.494 46.5745 155.114 48.8465C156.734 51.1239 157.544 53.6833 157.544 56.5245V92.0378C157.544 109.367 152.734 125.47 143.116 140.345C133.497 155.22 120.529 165.767 104.21 171.986C103.486 172.262 102.709 172.47 101.88 172.608C101.051 172.746 100.258 172.815 99.5004 172.815ZM99.5004 165.004C113.873 160.444 125.758 151.323 135.156 137.642C144.553 123.961 149.252 108.759 149.252 92.0378V56.367C149.252 55.3057 148.959 54.3494 148.373 53.4981C147.792 52.6468 146.969 52.0111 145.902 51.591L101.258 35.0077C100.728 34.7866 100.142 34.676 99.5004 34.676C98.8591 34.676 98.2731 34.7866 97.7425 35.0077L53.0989 51.591C52.032 52.0111 51.2083 52.6468 50.6279 53.4981C50.0419 54.3494 49.7489 55.3057 49.7489 56.367V92.0378C49.7489 108.759 54.4477 123.961 63.8452 137.642C73.2427 151.323 85.1277 160.444 99.5004 165.004Z" fill="#0A142F"/>
<path fill-rule="evenodd" clip-rule="evenodd" d="M90.7603 70.2999L84.0002 54.9719L77.2402 70.2999L61.9062 77.0599L77.2402 83.8199L84.0002 99.1559L90.7603 83.8199L106.094 77.0599L90.7603 70.2999Z" fill="#0A142F"/>
<path fill-rule="evenodd" clip-rule="evenodd" d="M125.242 88.7543L120.5 78L115.758 88.7543L105 93.4972L115.758 98.2401L120.5 109L125.242 98.2401L136 93.4972L125.242 88.7543Z" fill="#0A142F"/>
<path fill-rule="evenodd" clip-rule="evenodd" d="M97.3246 126.673L93.5 118L89.6754 126.673L81 130.498L89.6754 134.323L93.5 143L97.3246 134.323L106 130.498L97.3246 126.673Z" fill="#0A142F"/>
</svg>
