<svg width="200" height="199" viewBox="0 0 200 199" fill="none" xmlns="http://www.w3.org/2000/svg">
<path d="M100 172.815C99.2485 172.815 98.4553 172.746 97.6206 172.608C96.7859 172.47 96.0119 172.262 95.2988 171.986C78.9748 165.767 66.0035 155.22 56.3849 140.345C46.7663 125.47 41.957 109.367 41.957 92.0376V56.5244C41.957 53.6831 42.7669 51.1238 44.3866 48.8463C46.0007 46.5689 48.093 44.9189 50.6635 43.8962L95.3154 27.3129C96.9296 26.7269 98.4912 26.434 100 26.434C101.509 26.434 103.074 26.7269 104.694 27.3129L149.337 43.8962C151.902 44.9244 153.994 46.5744 155.614 48.8463C157.234 51.1238 158.044 53.6831 158.044 56.5244V92.0376C158.044 109.367 153.234 125.47 143.616 140.345C133.997 155.22 121.029 165.767 104.71 171.986C103.986 172.262 103.209 172.47 102.38 172.608C101.551 172.746 100.758 172.815 100 172.815ZM100 165.004C114.373 160.444 126.258 151.323 135.656 137.642C145.053 123.961 149.752 108.759 149.752 92.0376V56.3669C149.752 55.3055 149.459 54.3492 148.873 53.498C148.292 52.6467 147.469 52.011 146.402 51.5909L101.758 35.0075C101.228 34.7864 100.642 34.6759 100 34.6759C99.3591 34.6759 98.7731 34.7864 98.2425 35.0075L53.5989 51.5909C52.532 52.011 51.7083 52.6467 51.1279 53.498C50.5419 54.3492 50.2489 55.3055 50.2489 56.3669V92.0376C50.2489 108.759 54.9477 123.961 64.3452 137.642C73.7427 151.323 85.6277 160.444 100 165.004Z" fill="#0A142F"/>
<path d="M96.9204 107.5L78.674 105.25C77.3909 105.1 76.5563 104.425 76.1703 103.225C75.7844 102.025 76.0543 101 76.9803 100.15L108.469 70.75C108.725 70.5 109.033 70.313 109.393 70.189C109.752 70.065 110.24 70.002 110.855 70C111.882 70 112.665 70.425 113.205 71.275C113.745 72.125 113.757 73 113.242 73.9L103.08 92.5L121.326 94.75C122.609 94.9 123.444 95.575 123.83 96.775C124.216 97.975 123.946 99 123.02 99.85L91.5312 129.25C91.2746 129.5 90.9666 129.688 90.6073 129.814C90.248 129.94 89.7605 130.002 89.1445 130C88.118 130 87.3348 129.575 86.7948 128.725C86.2549 127.875 86.2426 127 86.7579 126.1L96.9204 107.5Z" fill="#0A142F"/>
</svg>
