<svg width="200" height="199" viewBox="0 0 200 199" fill="none" xmlns="http://www.w3.org/2000/svg">
<path d="M100 172.815C99.2485 172.815 98.4553 172.746 97.6206 172.608C96.7859 172.47 96.0119 172.262 95.2988 171.986C78.9748 165.767 66.0035 155.22 56.3849 140.345C46.7663 125.47 41.957 109.367 41.957 92.0376V56.5244C41.957 53.6831 42.7669 51.1238 44.3866 48.8463C46.0007 46.5689 48.093 44.9189 50.6635 43.8962L95.3154 27.3129C96.9296 26.7269 98.4912 26.434 100 26.434C101.509 26.434 103.074 26.7269 104.694 27.3129L149.337 43.8962C151.902 44.9244 153.994 46.5744 155.614 48.8463C157.234 51.1238 158.044 53.6831 158.044 56.5244V92.0376C158.044 109.367 153.234 125.47 143.616 140.345C133.997 155.22 121.029 165.767 104.71 171.986C103.986 172.262 103.209 172.47 102.38 172.608C101.551 172.746 100.758 172.815 100 172.815ZM100 165.004C114.373 160.444 126.258 151.323 135.656 137.642C145.053 123.961 149.752 108.759 149.752 92.0376V56.3669C149.752 55.3055 149.459 54.3492 148.873 53.498C148.292 52.6467 147.469 52.011 146.402 51.5909L101.758 35.0075C101.228 34.7864 100.642 34.6759 100 34.6759C99.3591 34.6759 98.7731 34.7864 98.2425 35.0075L53.5989 51.5909C52.532 52.011 51.7083 52.6467 51.1279 53.498C50.5419 54.3492 50.2489 55.3055 50.2489 56.3669V92.0376C50.2489 108.759 54.9477 123.961 64.3452 137.642C73.7427 151.323 85.6277 160.444 100 165.004Z" fill="#0A142F"/>
<path d="M96.7502 97.865C96.7502 93.2262 94.4327 86.4762 89.8727 78.08C89.0927 76.64 87.0489 76.655 86.1714 78.0237C84.9514 79.9262 83.1277 81.87 80.7002 83.855L79.6239 84.7062L77.1602 86.6075C72.1202 90.665 70.1327 94.2687 70.5714 99.5975C70.9539 104.307 73.7777 107.679 78.6227 109.224C76.9152 111.234 74.6577 112.826 71.8502 114.001C71.3111 114.228 70.8838 114.659 70.6618 115.2C70.4397 115.742 70.4409 116.349 70.6652 116.889C71.1302 118.014 72.4089 118.546 73.5227 118.081C78.8664 115.85 82.7027 112.265 84.9264 107.383C85.7614 105.558 86.4264 103.759 86.9214 101.986L87.0452 101.529L87.3452 100.314L87.5439 99.3387L87.6639 98.645L87.8589 97.2425C87.9839 96.13 88.0377 95.03 88.0202 93.9425L88.0089 93.875C88.0317 93.3163 88.2666 92.7872 88.6659 92.3956C89.0651 92.0041 89.5986 91.7794 90.1577 91.7675C90.4463 91.7645 90.7326 91.8184 91.0004 91.9261C91.2681 92.0338 91.512 92.1932 91.7182 92.3952C91.9243 92.5972 92.0887 92.8378 92.2018 93.1032C92.315 93.3687 92.3747 93.6539 92.3777 93.9425C92.4452 98.2425 91.5852 102.623 89.7977 107.083L89.7227 107.345C89.6756 107.611 89.7095 107.886 89.8202 108.133C90.1202 108.808 90.9077 109.107 91.5714 108.8L91.9089 108.631C92.1097 108.515 92.2992 108.381 92.4752 108.23C94.5827 106.392 96.7502 102.504 96.7502 97.865ZM122.978 89.5775C122.838 87.1898 121.791 84.9457 120.051 83.3047C118.311 81.6637 116.009 80.7497 113.618 80.75H98.7527C97.5789 80.75 96.7427 81.275 96.7427 82.6175C96.7427 83.96 97.4927 84.4775 98.7527 84.4775H114.578L115.028 84.5C116.187 84.6119 117.264 85.1516 118.047 86.0141C118.831 86.8765 119.265 87.9998 119.265 89.165V109.812L119.243 110.262C119.131 111.422 118.591 112.499 117.729 113.282C116.866 114.066 115.743 114.5 114.578 114.5H85.4927C84.3639 114.5 83.6102 115.224 83.6102 116.356C83.6102 117.493 84.3602 118.231 85.4927 118.25H113.618L114.169 118.235C116.556 118.094 118.799 117.047 120.439 115.307C122.08 113.567 122.993 111.266 122.993 108.875V105.804H127.369L127.789 105.777C128.539 105.678 129.227 105.309 129.725 104.739C130.223 104.169 130.496 103.437 130.493 102.68V96.4325L130.47 96.05C130.377 95.293 130.01 94.5961 129.439 94.0906C128.868 93.5851 128.132 93.3057 127.369 93.305L122.993 93.2487V90.125L122.978 89.5775Z" fill="#0A142F"/>
</svg>
