<svg width="199" height="199" viewBox="0 0 199 199" fill="none" xmlns="http://www.w3.org/2000/svg">
<path d="M99.5004 172.815C98.7486 172.815 97.9553 172.746 97.1206 172.608C96.2859 172.47 95.5119 172.262 94.7988 171.986C78.4748 165.767 65.5035 155.22 55.8849 140.345C46.2663 125.47 41.457 109.367 41.457 92.0378V56.5245C41.457 53.6833 42.2669 51.1239 43.8866 48.8465C45.5007 46.569 47.593 44.919 50.1635 43.8963L94.8154 27.313C96.4296 26.7271 97.9912 26.4341 99.5004 26.4341C101.009 26.4341 102.574 26.7271 104.194 27.313L148.837 43.8963C151.402 44.9245 153.494 46.5745 155.114 48.8465C156.734 51.1239 157.544 53.6833 157.544 56.5245V92.0378C157.544 109.367 152.734 125.47 143.116 140.345C133.497 155.22 120.529 165.767 104.21 171.986C103.486 172.262 102.709 172.47 101.88 172.608C101.051 172.746 100.258 172.815 99.5004 172.815ZM99.5004 165.004C113.873 160.444 125.758 151.323 135.156 137.642C144.553 123.961 149.252 108.759 149.252 92.0378V56.367C149.252 55.3057 148.959 54.3494 148.373 53.4981C147.792 52.6468 146.969 52.0111 145.902 51.591L101.258 35.0077C100.728 34.7866 100.142 34.676 99.5004 34.676C98.8591 34.676 98.2731 34.7866 97.7425 35.0077L53.0989 51.591C52.032 52.0111 51.2083 52.6468 50.6279 53.4981C50.0419 54.3494 49.7489 55.3057 49.7489 56.367V92.0378C49.7489 108.759 54.4477 123.961 63.8452 137.642C73.2427 151.323 85.1277 160.444 99.5004 165.004Z" fill="#0A142F"/>
<path d="M75.6211 121.2L87.5611 79.4099M111.441 79.4099L123.381 121.2M99.5011 88.3649V82.3949M99.5011 103.29V97.3199M99.5011 118.215V112.245" stroke="#0A142F" stroke-width="3.98" stroke-linecap="round" stroke-linejoin="round"/>
</svg>
