<svg width="200" height="199" viewBox="0 0 200 199" fill="none" xmlns="http://www.w3.org/2000/svg">
<path d="M100 172.815C99.2486 172.815 98.4553 172.746 97.6206 172.608C96.7859 172.47 96.0119 172.262 95.2988 171.986C78.9748 165.767 66.0035 155.22 56.3849 140.345C46.7663 125.47 41.957 109.367 41.957 92.0376V56.5244C41.957 53.6831 42.7669 51.1238 44.3866 48.8463C46.0007 46.5689 48.093 44.9189 50.6635 43.8962L95.3154 27.3129C96.9296 26.7269 98.4912 26.434 100 26.434C101.509 26.434 103.074 26.7269 104.694 27.3129L149.337 43.8962C151.902 44.9244 153.994 46.5744 155.614 48.8463C157.234 51.1238 158.044 53.6831 158.044 56.5244V92.0376C158.044 109.367 153.234 125.47 143.616 140.345C133.997 155.22 121.029 165.767 104.71 171.986C103.986 172.262 103.209 172.47 102.38 172.608C101.551 172.746 100.758 172.815 100 172.815ZM100 165.004C114.373 160.444 126.258 151.323 135.656 137.642C145.053 123.961 149.752 108.759 149.752 92.0376V56.3669C149.752 55.3055 149.459 54.3492 148.873 53.498C148.292 52.6467 147.469 52.011 146.402 51.5909L101.758 35.0075C101.228 34.7864 100.642 34.6759 100 34.6759C99.3591 34.6759 98.7731 34.7864 98.2425 35.0075L53.5989 51.5909C52.532 52.011 51.7083 52.6467 51.1279 53.498C50.5419 54.3492 50.2489 55.3055 50.2489 56.3669V92.0376C50.2489 108.759 54.9477 123.961 64.3452 137.642C73.7427 151.323 85.6277 160.444 100 165.004Z" fill="#0A142F"/>
<path d="M107.75 124.851H81.9171V119.685H107.75V124.851ZM125.834 78.3333L113.602 93.717L113.033 94.4145L98.4892 112.989C98.0092 113.469 97.4393 113.85 96.8121 114.109C96.1849 114.369 95.5127 114.503 94.8338 114.503C94.1549 114.503 93.4827 114.369 92.8555 114.109C92.2283 113.85 91.6584 113.469 91.1784 112.989C90.6983 112.509 90.3176 111.939 90.0578 111.312C89.798 110.684 89.6643 110.012 89.6643 109.333C89.6643 108.654 89.798 107.982 90.0578 107.355C90.3176 106.728 90.6983 106.158 91.1784 105.678L125.834 78.3333ZM75.8334 86.6878C72.1011 92.6642 70.759 99.8278 72.0746 106.75H74.1671V104.167C74.1414 99.0804 75.6642 94.1067 78.533 89.9066L75.8334 86.6878ZM100 73.1666C96.0496 73.1664 92.1424 73.993 88.5302 75.5934C84.9179 77.1937 81.6806 79.5324 79.0264 82.4589L81.9817 85.98C85.4889 82.7557 90.0698 80.9509 94.8338 80.9166C99.6236 80.9495 104.228 82.7721 107.743 86.0265L116.914 78.788C112.03 75.139 106.097 73.1672 100 73.1666ZM117.645 96.9333L117.043 97.6747L115.162 100.077C115.383 101.429 115.496 102.797 115.5 104.167V106.75H127.926C129.152 100.285 128.07 93.5947 124.87 87.8451L117.645 96.9333Z" fill="#0A142F"/>
</svg>
