<svg width="199" height="199" viewBox="0 0 199 199" fill="none" xmlns="http://www.w3.org/2000/svg">
<path d="M99.5004 172.815C98.7486 172.815 97.9553 172.746 97.1206 172.608C96.2859 172.47 95.5119 172.262 94.7988 171.986C78.4748 165.767 65.5035 155.22 55.8849 140.345C46.2663 125.47 41.457 109.367 41.457 92.0378V56.5245C41.457 53.6833 42.2669 51.1239 43.8866 48.8465C45.5007 46.569 47.593 44.919 50.1635 43.8963L94.8154 27.313C96.4296 26.7271 97.9912 26.4341 99.5004 26.4341C101.009 26.4341 102.574 26.7271 104.194 27.313L148.837 43.8963C151.402 44.9245 153.494 46.5745 155.114 48.8465C156.734 51.1239 157.544 53.6833 157.544 56.5245V92.0378C157.544 109.367 152.734 125.47 143.116 140.345C133.497 155.22 120.529 165.767 104.21 171.986C103.486 172.262 102.709 172.47 101.88 172.608C101.051 172.746 100.258 172.815 99.5004 172.815ZM99.5004 165.004C113.873 160.444 125.758 151.323 135.156 137.642C144.553 123.961 149.252 108.759 149.252 92.0378V56.367C149.252 55.3057 148.959 54.3494 148.373 53.4981C147.792 52.6468 146.969 52.0111 145.902 51.591L101.258 35.0077C100.728 34.7866 100.142 34.676 99.5004 34.676C98.8591 34.676 98.2731 34.7866 97.7425 35.0077L53.0989 51.591C52.032 52.0111 51.2083 52.6468 50.6279 53.4981C50.0419 54.3494 49.7489 55.3057 49.7489 56.367V92.0378C49.7489 108.759 54.4477 123.961 63.8452 137.642C73.2427 151.323 85.1277 160.444 99.5004 165.004Z" fill="#0A142F"/>
<path d="M115.841 127.5C117.521 127.5 119.131 126.833 120.319 125.645C121.507 124.457 122.174 122.846 122.174 121.167C122.174 119.487 121.507 117.876 120.319 116.688C119.131 115.501 117.521 114.833 115.841 114.833C114.161 114.833 112.55 115.501 111.363 116.688C110.175 117.876 109.508 119.487 109.508 121.167C109.508 122.846 110.175 124.457 111.363 125.645C112.55 126.833 114.161 127.5 115.841 127.5ZM84.1868 127.5C85.8666 127.5 87.4775 126.833 88.6652 125.645C89.8529 124.457 90.5202 122.846 90.5202 121.167C90.5202 119.487 89.8529 117.876 88.6652 116.688C87.4775 115.501 85.8666 114.833 84.1868 114.833C82.5071 114.833 80.8962 115.501 79.7085 116.688C78.5208 117.876 77.8535 119.487 77.8535 121.167C77.8535 122.846 78.5208 124.457 79.7085 125.645C80.8962 126.833 82.5071 127.5 84.1868 127.5Z" stroke="#0A142F" stroke-width="3"/>
<path d="M100.013 99L81.0197 70.5M81.0197 70.5L87.353 102.167M81.0197 70.5H74.1544C73.5527 70.5 73.0492 71.0098 72.9764 71.6875L71.9219 81.3617C73.8852 81.3617 75.4812 83.1825 75.4812 85.4308C75.4812 87.6792 73.8884 89.5 71.9219 89.5C70.3702 89.5 68.8502 88.3663 68.3594 86.7862M122.167 121.167C130.664 121.167 131.667 118.228 131.667 110.121C131.667 106.242 131.667 104.304 130.907 102.667C130.116 100.957 128.684 99.8898 125.676 97.7112C122.69 95.5452 120.565 93.1132 118.542 89.7628C115.654 84.9812 114.213 82.5903 112.05 81.2952C109.881 80 107.328 80 102.224 80H100.007V102.167" stroke="#0A142F" stroke-width="3" stroke-linecap="round" stroke-linejoin="round"/>
<path d="M77.856 121.154C77.856 121.154 74.1827 121.186 73.0427 121.04C72.0927 120.66 70.94 119.767 70.1927 119.273C67.9127 117.756 68.3718 118.38 68.3718 117.012L68.3592 105.352V102.312C68.3592 102.122 68.1628 102.164 69.6258 102.186H130.021M90.5163 121.173H109.51" stroke="#0A142F" stroke-width="3" stroke-linecap="round"/>
</svg>
