<svg width="39" height="39" viewBox="0 0 39 39" fill="none" xmlns="http://www.w3.org/2000/svg">
<g opacity="0.7">
<path d="M19.5 19.5C19.5 14.625 23.5625 10.5625 28.4375 10.5625C33.3125 10.5625 37.375 14.625 37.375 19.5H19.5ZM19.5 19.5C19.5 24.375 15.4375 28.4375 10.5625 28.4375C5.6875 28.4375 1.625 24.375 1.625 19.5H19.5ZM19.5 19.5C14.625 19.5 10.5625 15.4375 10.5625 10.5625C10.5625 5.6875 14.625 1.625 19.5 1.625V19.5ZM19.5 19.5C24.375 19.5 28.4375 23.5625 28.4375 28.4375C28.4375 33.3125 24.375 37.375 19.5 37.375V19.5Z" fill="#0A142F"/>
</g>
</svg>
