<svg width="48" height="48" viewBox="0 0 48 48" fill="none" xmlns="http://www.w3.org/2000/svg">
<g opacity="0.7">
<path d="M10 22L13 13H35L38 22M35 32C34.2044 32 33.4413 31.6839 32.8787 31.1213C32.3161 30.5587 32 29.7956 32 29C32 28.2044 32.3161 27.4413 32.8787 26.8787C33.4413 26.3161 34.2044 26 35 26C35.7956 26 36.5587 26.3161 37.1213 26.8787C37.6839 27.4413 38 28.2044 38 29C38 29.7956 37.6839 30.5587 37.1213 31.1213C36.5587 31.6839 35.7956 32 35 32ZM13 32C12.2044 32 11.4413 31.6839 10.8787 31.1213C10.3161 30.5587 10 29.7956 10 29C10 28.2044 10.3161 27.4413 10.8787 26.8787C11.4413 26.3161 12.2044 26 13 26C13.7956 26 14.5587 26.3161 15.1213 26.8787C15.6839 27.4413 16 28.2044 16 29C16 29.7956 15.6839 30.5587 15.1213 31.1213C14.5587 31.6839 13.7956 32 13 32ZM37.84 12C37.44 10.84 36.32 10 35 10H13C11.68 10 10.56 10.84 10.16 12L6 24V40C6 40.5304 6.21071 41.0391 6.58579 41.4142C6.96086 41.7893 7.46957 42 8 42H10C10.5304 42 11.0391 41.7893 11.4142 41.4142C11.7893 41.0391 12 40.5304 12 40V38H36V40C36 40.5304 36.2107 41.0391 36.5858 41.4142C36.9609 41.7893 37.4696 42 38 42H40C40.5304 42 41.0391 41.7893 41.4142 41.4142C41.7893 41.0391 42 40.5304 42 40V24L37.84 12Z" fill="#0A142F"/>
</g>
</svg>
