<svg width="48" height="48" viewBox="0 0 48 48" fill="none" xmlns="http://www.w3.org/2000/svg">
<g opacity="0.7">
<path d="M13 22L24 4L35 22H13ZM35 44C32.5 44 30.3753 43.1253 28.626 41.376C26.8767 39.6267 26.0013 37.5013 26 35C25.9987 32.4987 26.874 30.374 28.626 28.626C30.378 26.878 32.5027 26.0027 35 26C37.4973 25.9973 39.6227 26.8727 41.376 28.626C43.1293 30.3793 44.004 32.504 44 35C43.996 37.496 43.1213 39.6213 41.376 41.376C39.6307 43.1307 37.5053 44.0053 35 44ZM6 43V27H22V43H6Z" fill="#0A142F"/>
</g>
</svg>
