<svg width="48" height="48" viewBox="0 0 48 48" fill="none" xmlns="http://www.w3.org/2000/svg">
<g opacity="0.7" clip-path="url(#clip0_341_851)">
<path d="M24 33V24H15V15H3V45H33V33H24ZM21 27V33H15V27H21ZM6 18H12V24H6V18ZM12 27V33H6V27H12ZM6 42V36H12V42H6ZM21 42H15V36H21V42ZM30 42H24V36H30V42ZM44.4 20.4L40.5 24.3V15H45V3H33V15H37.5V24.3L33.6 20.4L31.5 22.5L39 30L46.5 22.5L44.4 20.4ZM36 6H42V12H36V6Z" fill="#0A142F"/>
</g>
<defs>
<clipPath id="clip0_341_851">
<rect width="48" height="48" fill="white"/>
</clipPath>
</defs>
</svg>
