<svg width="48" height="48" viewBox="0 0 48 48" fill="none" xmlns="http://www.w3.org/2000/svg">
<g opacity="0.7" clip-path="url(#clip0_319_866)">
<path d="M20.5766 7.38149L18.24 10.5601H12.7834C13.4563 12.4801 15.6595 14.2906 18.7363 13.6897C19.6483 13.6282 22.7251 13.1396 24 13.4401C25.6973 13.8471 24.9898 13.849 28.033 16.2913L43.2 28.8001C44.1293 29.6209 45.3178 29.2848 46.1405 28.3575C46.9632 27.4282 47.0093 25.7809 46.08 24.9601L26.88 9.60005C25.6781 8.63525 25.3747 7.29893 24.96 5.76005C24.1536 3.11525 21.1882 0.993652 18.2774 0.993652C15.9322 0.993652 13.4083 3.02213 12.48 4.80005H18.24L20.5766 7.38149ZM33.7478 30.72L27.8131 20.4193C27.5789 19.9921 26.9866 19.2001 26.4998 19.2001H9.98016C9.49344 19.2001 8.90112 19.9921 8.66592 20.4193L2.88 30.72H2.73216C1.75776 30.72 0.959999 31.0743 0.959999 32.0496V40.9105C0.959999 41.8858 1.75776 42.24 2.73216 42.24H4.8V45.3408C4.8 46.8039 5.70048 48 7.16256 48H8.04864C9.51168 48 10.56 46.8039 10.56 45.3408V42.24H25.92V45.3408C25.92 46.8029 26.9683 48 28.4304 48H29.3165C30.7795 48 31.68 46.8039 31.68 45.3408V42.24H33.7478C34.7222 42.24 35.52 41.8858 35.52 40.9105V32.0496C35.52 31.0743 34.7222 30.72 33.7478 30.72ZM5.83392 37.3661C5.53913 37.3723 5.24609 37.3195 4.97196 37.2109C4.69782 37.1024 4.44812 36.9402 4.23747 36.7339C4.02682 36.5276 3.85947 36.2813 3.74522 36.0095C3.63097 35.7377 3.57212 35.4458 3.57212 35.1509C3.57212 34.8561 3.63097 34.5642 3.74522 34.2924C3.85947 34.0206 4.02682 33.7743 4.23747 33.568C4.44812 33.3617 4.69782 33.1995 4.97196 33.0909C5.24609 32.9824 5.53913 32.9296 5.83392 32.9357C6.41344 32.9478 6.96516 33.1865 7.37074 33.6006C7.77633 34.0147 8.00348 34.5713 8.00348 35.1509C8.00348 35.7306 7.77633 36.2871 7.37074 36.7013C6.96516 37.1154 6.41344 37.3541 5.83392 37.3661ZM7.60608 30.72L11.1974 23.2052C11.4154 22.7693 11.9933 22.0801 12.48 22.0801H24C24.4867 22.0801 25.0637 22.7693 25.2826 23.2052L28.8739 30.72H7.60608ZM30.6461 37.3661C30.0584 37.3661 29.4949 37.1327 29.0794 36.7172C28.6638 36.3017 28.4304 35.7381 28.4304 35.1505C28.4304 34.5628 28.6638 33.9992 29.0794 33.5837C29.4949 33.1682 30.0584 32.9348 30.6461 32.9348C31.2337 32.9348 31.7973 33.1682 32.2128 33.5837C32.6283 33.9992 32.8618 34.5628 32.8618 35.1505C32.8618 35.7381 32.6283 36.3017 32.2128 36.7172C31.7973 37.1327 31.2337 37.3661 30.6461 37.3661Z" fill="#0A142F"/>
</g>
<defs>
<clipPath id="clip0_319_866">
<rect width="48" height="48" fill="white"/>
</clipPath>
</defs>
</svg>
