<svg width="59" height="59" viewBox="0 0 59 59" fill="none" xmlns="http://www.w3.org/2000/svg">
<g opacity="0.7">
<path d="M34.0565 7.73491C34.2869 7.96541 34.4164 8.278 34.4164 8.60393C34.4164 8.92986 34.2869 9.24245 34.0565 9.47295L31.238 12.2914L34.0565 15.1099C34.2804 15.3417 34.4043 15.6522 34.4015 15.9745C34.3987 16.2968 34.2694 16.6051 34.0415 16.833C33.8136 17.0609 33.5054 17.1901 33.1831 17.1929C32.8608 17.1957 32.5503 17.0719 32.3185 16.8479L29.5 14.0295L26.6815 16.8479C26.5673 16.9621 26.4318 17.0526 26.2826 17.1143C26.1334 17.176 25.9735 17.2078 25.8121 17.2077C25.6506 17.2077 25.4908 17.1758 25.3416 17.114C25.1925 17.0521 25.057 16.9615 24.9429 16.8473C24.8287 16.7331 24.7382 16.5976 24.6765 16.4484C24.6148 16.2992 24.583 16.1393 24.5831 15.9779C24.5831 15.8164 24.615 15.6566 24.6768 15.5074C24.7387 15.3583 24.8293 15.2228 24.9435 15.1087L27.762 12.2914L24.9435 9.47295C24.8294 9.35875 24.7388 9.22318 24.6771 9.074C24.6154 8.92482 24.5836 8.76494 24.5837 8.60349C24.5838 8.44204 24.6156 8.28219 24.6774 8.13305C24.7393 7.98391 24.8299 7.84841 24.9441 7.73429C25.0583 7.62017 25.1939 7.52966 25.343 7.46793C25.4922 7.4062 25.6521 7.37445 25.8135 7.37451C25.975 7.37457 26.1348 7.40642 26.284 7.46826C26.4331 7.5301 26.5686 7.6207 26.6827 7.73491L29.5 10.5534L32.3185 7.73491C32.549 7.50447 32.8616 7.37502 33.1875 7.37502C33.5134 7.37502 33.826 7.50447 34.0565 7.73491ZM23.5975 40.2279C24.4205 40.5022 25.3072 40.5212 26.1412 40.2825C26.9751 40.0439 27.7175 39.5587 28.2708 38.8906V51.653L13.5208 46.0935V36.8698L23.5975 40.2279Z" fill="#0A142F"/>
<path fill-rule="evenodd" clip-rule="evenodd" d="M45.4792 46.0937L30.7292 51.6532V38.8908C31.2825 39.5589 32.0248 40.0441 32.8588 40.2827C33.6928 40.5214 34.5795 40.5024 35.4024 40.2281L45.4792 36.8701V46.0937ZM29.9019 18.5051C29.6415 18.415 29.3584 18.415 29.0981 18.5051L13.1213 24.0363L13.0931 24.0449C12.8783 24.1248 12.6901 24.2632 12.5498 24.4444L7.64541 30.5755C7.52154 30.7301 7.43686 30.9123 7.39858 31.1066C7.3603 31.301 7.36956 31.5017 7.42557 31.6917C7.48158 31.8817 7.58268 32.0554 7.72027 32.1979C7.85785 32.3404 8.02783 32.4475 8.21574 32.5102L24.8095 38.0414C25.0608 38.125 25.3323 38.1251 25.5837 38.0418C25.8351 37.9586 26.0529 37.7963 26.2046 37.5793L29.5 32.8716L32.7942 37.5793C32.946 37.7966 33.1639 37.959 33.4156 38.0423C33.6672 38.1256 33.939 38.1253 34.1905 38.0414L50.7842 32.5102C50.9723 32.4477 51.1424 32.3406 51.2801 32.1982C51.4178 32.0557 51.519 31.8821 51.5752 31.6921C51.6313 31.5021 51.6407 31.3013 51.6025 31.1069C51.5643 30.9125 51.4797 30.7301 51.3558 30.5755L46.4514 24.4444C46.3045 24.255 46.1054 24.1128 45.8786 24.0351L29.9019 18.5051ZM29.5 29.4287L41.7216 25.1979L29.5 20.9671L17.2784 25.1979L29.5 29.4287Z" fill="#0A142F"/>
</g>
</svg>
