<svg width="48" height="48" viewBox="0 0 48 48" fill="none" xmlns="http://www.w3.org/2000/svg">
<g opacity="0.7">
<path d="M12 15C12 12.0826 13.1589 9.28473 15.2218 7.22183C17.2847 5.15893 20.0826 4 23 4C25.9174 4 28.7153 5.15893 30.7782 7.22183C32.8411 9.28473 34 12.0826 34 15C34 17.9174 32.8411 20.7153 30.7782 22.7782C28.7153 24.8411 25.9174 26 23 26C20.0826 26 17.2847 24.8411 15.2218 22.7782C13.1589 20.7153 12 17.9174 12 15ZM23.5 44H4V40C4 36.8174 5.26428 33.7652 7.51472 31.5147C9.76516 29.2643 12.8174 28 16 28H23.5V44ZM27.5 28H44.5V32H27.5V28ZM27.5 34H44.5V38H27.5V34ZM27.5 40H44.5V44H27.5V40Z" fill="#0A142F"/>
</g>
</svg>
