<svg width="43" height="43" viewBox="0 0 43 43" fill="none" xmlns="http://www.w3.org/2000/svg">
<path d="M11.4297 19.5061L21.0547 3.7561L30.6797 19.5061H11.4297ZM30.6797 38.7561C28.4922 38.7561 26.6331 37.9908 25.1024 36.4601C23.5718 34.9294 22.8059 33.0698 22.8047 30.8811C22.8035 28.6924 23.5694 26.8334 25.1024 25.3039C26.6354 23.7744 28.4945 23.0084 30.6797 23.0061C32.8649 23.0038 34.7245 23.7697 36.2587 25.3039C37.7929 26.838 38.5582 28.6971 38.5547 30.8811C38.5512 33.0651 37.7859 34.9248 36.2587 36.4601C34.7315 37.9954 32.8719 38.7608 30.6797 38.7561ZM5.30469 37.8811V23.8811H19.3047V37.8811H5.30469Z" fill="#9CA3AF"/>
</svg>
