<svg width="42" height="43" viewBox="0 0 42 43" fill="none" xmlns="http://www.w3.org/2000/svg">
<path d="M18.0382 7.70044C8.56431 7.70044 2 15.1673 2 18.9009C2 22.6337 3.8947 25.4339 7.68446 25.4339C11.4742 25.4339 13.3686 26.367 13.3686 29.1671C13.3686 32.9007 16.2108 35.7004 19.9998 35.7004C32.3159 35.7004 38 29.1674 38 22.6337C38 11.4337 29.4067 7.70044 18.0382 7.70044ZM15.5095 11.4337C15.823 11.4299 16.1342 11.4874 16.4249 11.603C16.7157 11.7185 16.9803 11.8898 17.2034 12.1069C17.4264 12.324 17.6035 12.5825 17.7244 12.8675C17.8453 13.1525 17.9075 13.4583 17.9075 13.7672C17.9075 14.0761 17.8453 14.3819 17.7244 14.6669C17.6035 14.9519 17.4264 15.2105 17.2034 15.4275C16.9803 15.6446 16.7157 15.8159 16.4249 15.9315C16.1342 16.047 15.823 16.1046 15.5095 16.1008C14.8863 16.0932 14.2913 15.844 13.8534 15.4072C13.4155 14.9704 13.1699 14.3812 13.1699 13.7672C13.1699 13.1533 13.4155 12.564 13.8534 12.1272C14.2913 11.6904 14.8863 11.4412 15.5095 11.4337ZM23.0886 11.4337C23.4022 11.4299 23.7133 11.4874 24.0041 11.603C24.2949 11.7185 24.5594 11.8898 24.7825 12.1069C25.0056 12.324 25.1827 12.5825 25.3036 12.8675C25.4244 13.1525 25.4867 13.4583 25.4867 13.7672C25.4867 14.0761 25.4244 14.3819 25.3036 14.6669C25.1827 14.9519 25.0056 15.2105 24.7825 15.4275C24.5594 15.6446 24.2949 15.8159 24.0041 15.9315C23.7133 16.047 23.4022 16.1046 23.0886 16.1008C22.4655 16.0932 21.8705 15.844 21.4325 15.4072C20.9946 14.9704 20.749 14.3812 20.749 13.7672C20.749 13.1533 20.9946 12.564 21.4325 12.1272C21.8705 11.6904 22.4655 11.4412 23.0886 11.4337ZM29.9471 15.1673C30.2605 15.1635 30.5717 15.221 30.8624 15.3365C31.1531 15.4521 31.4176 15.6233 31.6407 15.8404C31.8637 16.0574 32.0408 16.3159 32.1616 16.6009C32.2825 16.8858 32.3447 17.1916 32.3447 17.5005C32.3447 17.8093 32.2825 18.1151 32.1616 18.4C32.0408 18.685 31.8637 18.9435 31.6407 19.1605C31.4176 19.3776 31.1531 19.5488 30.8624 19.6644C30.5717 19.7799 30.2605 19.8374 29.9471 19.8336C29.324 19.8261 28.7291 19.5769 28.2912 19.1402C27.8534 18.7035 27.6078 18.1143 27.6078 17.5005C27.6078 16.8866 27.8534 16.2975 28.2912 15.8607C28.7291 15.424 29.324 15.1748 29.9471 15.1673ZM8.87751 15.6152C9.19201 15.6098 9.50446 15.6662 9.79662 15.781C10.0888 15.8958 10.3548 16.0669 10.5792 16.2841C10.8035 16.5013 10.9817 16.7603 11.1033 17.0461C11.225 17.3319 11.2876 17.6387 11.2876 17.9486C11.2876 18.2585 11.225 18.5653 11.1033 18.851C10.9817 19.1368 10.8035 19.3959 10.5792 19.6131C10.3548 19.8303 10.0888 20.0013 9.79662 20.1161C9.50446 20.231 9.19201 20.2873 8.87751 20.2819C8.2565 20.2713 7.66459 20.0207 7.22926 19.5843C6.79392 19.1479 6.54998 18.5605 6.54998 17.9486C6.54998 17.3367 6.79392 16.7493 7.22926 16.3128C7.66459 15.8764 8.2565 15.6259 8.87751 15.6152ZM21.4402 26.367C22.194 26.367 22.9169 26.662 23.45 27.1871C23.983 27.7122 24.2824 28.4245 24.2824 29.1671C24.2824 30.7134 22.2898 31.9672 20.7202 31.9672C19.9664 31.9672 19.2435 31.6722 18.7104 31.1471C18.1774 30.6219 17.878 29.9097 17.878 29.1671C17.878 27.6207 19.8706 26.367 21.4402 26.367Z" fill="#9CA3AF"/>
</svg>
