<svg width="42" height="43" viewBox="0 0 42 43" fill="none" xmlns="http://www.w3.org/2000/svg">
<path d="M37.41 15.7757H37.5C37.8978 15.7757 38.2794 15.628 38.5607 15.3653C38.842 15.1025 39 14.7461 39 14.3745V12.9734C39 12.6018 38.842 12.2454 38.5607 11.9826C38.2794 11.7199 37.8978 11.5722 37.5 11.5722H35.475C35.1244 11.5739 34.7791 11.652 34.4666 11.8004C34.1541 11.9488 33.883 12.1633 33.675 12.4269C33.6528 12.4408 33.6267 12.4482 33.6 12.4482C33.5733 12.4482 33.5472 12.4408 33.525 12.4269C33.501 12.4185 33.4793 12.4054 33.4612 12.3885C33.4431 12.3716 33.429 12.3512 33.42 12.3288L32.7 8.96611C32.4956 8.01409 31.9446 7.15753 31.1407 6.54197C30.3368 5.92641 29.3295 5.58981 28.29 5.58936H13.71C12.6641 5.59172 11.6518 5.9343 10.847 6.5582C10.0422 7.18211 9.49522 8.04838 9.3 9.00814L8.58 12.3709C8.57097 12.3933 8.55694 12.4136 8.53883 12.4305C8.52073 12.4474 8.49896 12.4605 8.475 12.469C8.4528 12.4828 8.4267 12.4902 8.4 12.4902C8.3733 12.4902 8.3472 12.4828 8.325 12.469C8.11699 12.2054 7.84592 11.9908 7.53341 11.8424C7.22089 11.694 6.87557 11.6159 6.525 11.6143H4.5C4.10218 11.6143 3.72064 11.7619 3.43934 12.0246C3.15804 12.2874 3 12.6438 3 13.0154L3 14.4165C3 14.7882 3.15804 15.1445 3.43934 15.4073C3.72064 15.6701 4.10218 15.8177 4.5 15.8177H4.59C4.6649 15.8186 4.73779 15.8404 4.79928 15.8804C4.86077 15.9204 4.90804 15.9766 4.935 16.0419C4.97208 16.0989 4.99169 16.1643 4.99169 16.231C4.99169 16.2977 4.97208 16.3632 4.935 16.4202C3.72507 17.5531 3.03162 19.0796 3 20.6797L3 26.2842C3.00007 26.6815 3.12149 27.0705 3.34999 27.4055C3.57849 27.7406 3.90459 28.0078 4.29 28.1758C4.35213 28.2076 4.40422 28.2541 4.44107 28.3107C4.47793 28.3672 4.49824 28.4318 4.5 28.498V30.4876C4.5 31.0451 4.73705 31.5796 5.15901 31.9738C5.58097 32.3679 6.15326 32.5894 6.75 32.5894H9.75C10.3467 32.5894 10.919 32.3679 11.341 31.9738C11.7629 31.5796 12 31.0451 12 30.4876V28.7502C11.9999 28.656 12.0389 28.5654 12.1089 28.4975C12.1788 28.4295 12.2742 28.3896 12.375 28.3859H29.625C29.7258 28.3896 29.8212 28.4295 29.8911 28.4975C29.9611 28.5654 30.0001 28.656 30 28.7502V30.4876C30 31.0451 30.2371 31.5796 30.659 31.9738C31.081 32.3679 31.6533 32.5894 32.25 32.5894H35.25C35.8467 32.5894 36.419 32.3679 36.841 31.9738C37.2629 31.5796 37.5 31.0451 37.5 30.4876V28.498C37.5018 28.4318 37.5221 28.3672 37.5589 28.3107C37.5958 28.2541 37.6479 28.2076 37.71 28.1758C38.0954 28.0078 38.4215 27.7406 38.65 27.4055C38.8785 27.0705 38.9999 26.6815 39 26.2842V20.6797C38.996 19.0729 38.3237 17.5305 37.125 16.3781C37.0879 16.3211 37.0683 16.2557 37.0683 16.189C37.0683 16.1223 37.0879 16.0569 37.125 15.9998C37.1475 15.9425 37.1856 15.8917 37.2356 15.8523C37.2856 15.813 37.3457 15.7866 37.41 15.7757ZM7.875 26.9848H5.25C5.05109 26.9848 4.86032 26.911 4.71967 26.7796C4.57902 26.6482 4.5 26.47 4.5 26.2842V25.5836C4.5 25.3978 4.57902 25.2197 4.71967 25.0883C4.86032 24.9569 5.05109 24.8831 5.25 24.8831H7.875C8.17474 24.8868 8.46086 25.0006 8.67142 25.1999C8.88198 25.3992 9.00003 25.6679 9 25.9479C8.99606 26.2242 8.87579 26.4879 8.66524 26.682C8.45469 26.876 8.17079 26.9848 7.875 26.9848ZM11.055 21.2541C11.0216 21.2948 10.9784 21.3274 10.9288 21.3494C10.8793 21.3713 10.8248 21.3819 10.77 21.3802H9C8.27428 21.3874 7.57039 21.1486 7.01876 20.708C6.46714 20.2674 6.10519 19.655 6 18.9843C5.99249 18.9343 5.99665 18.8833 6.01218 18.835C6.02771 18.7866 6.05426 18.7419 6.09 18.704C6.16386 18.629 6.26607 18.5838 6.375 18.5779H9.75C9.96227 18.5876 10.166 18.659 10.3327 18.7821C10.4995 18.9052 10.6209 19.0738 10.68 19.2645L11.13 20.9459C11.1442 20.9991 11.1449 21.0548 11.1318 21.1083C11.1188 21.1619 11.0925 21.2118 11.055 21.2541ZM27 20.9038L26.19 23.2017C25.9408 23.8975 25.4632 24.5021 24.8249 24.9298C24.1867 25.3574 23.4204 25.5862 22.635 25.5836H19.41C18.6246 25.5862 17.8583 25.3574 17.2201 24.9298C16.5818 24.5021 16.1042 23.8975 15.855 23.2017L15 20.9038C14.9581 20.8 14.9445 20.688 14.9602 20.578C14.9759 20.468 15.0205 20.3633 15.09 20.2733C15.1614 20.1834 15.2541 20.1101 15.3607 20.0591C15.4674 20.0081 15.5852 19.9807 15.705 19.9791H26.205C26.3248 19.9807 26.4426 20.0081 26.5493 20.0591C26.6559 20.1101 26.7486 20.1834 26.82 20.2733C26.9048 20.3555 26.9659 20.4565 26.9973 20.5668C27.0288 20.6771 27.0298 20.7931 27 20.9038ZM30.675 14.2484C30.6401 14.2875 30.5966 14.319 30.5474 14.3408C30.4982 14.3626 30.4445 14.3741 30.39 14.3745H11.655C11.6005 14.3741 11.5468 14.3626 11.4976 14.3408C11.4484 14.319 11.4049 14.2875 11.37 14.2484C11.3451 14.2054 11.332 14.1572 11.332 14.1083C11.332 14.0594 11.3451 14.0112 11.37 13.9682L12.315 9.55459C12.3851 9.23334 12.5736 8.94523 12.8477 8.74042C13.1218 8.53561 13.4641 8.42706 13.815 8.43367H28.395C28.7459 8.42706 29.0882 8.53561 29.3623 8.74042C29.6364 8.94523 29.8249 9.23334 29.895 9.55459L30.84 13.9682C30.8406 14.0295 30.8207 14.0895 30.7831 14.1397C30.7454 14.19 30.6919 14.228 30.63 14.2484H30.675ZM31.275 21.3802C31.2202 21.3819 31.1657 21.3713 31.1162 21.3494C31.0666 21.3274 31.0234 21.2948 30.99 21.2541C30.9525 21.2118 30.9262 21.1619 30.9132 21.1083C30.9001 21.0548 30.9008 20.9991 30.915 20.9459L31.365 19.2645C31.4241 19.0738 31.5455 18.9052 31.7123 18.7821C31.879 18.659 32.0827 18.5876 32.295 18.5779H35.64C35.7489 18.5838 35.8511 18.629 35.925 18.704C35.9607 18.7419 35.9873 18.7866 36.0028 18.835C36.0184 18.8833 36.0225 18.9343 36.015 18.9843C35.9098 19.655 35.5479 20.2674 34.9962 20.708C34.4446 21.1486 33.7407 21.3874 33.015 21.3802H31.275ZM37.545 25.5836V26.2842C37.545 26.47 37.466 26.6482 37.3253 26.7796C37.1847 26.911 36.9939 26.9848 36.795 26.9848H34.125C33.8292 26.9848 33.5453 26.876 33.3348 26.682C33.1242 26.4879 33.0039 26.2242 33 25.9479C33 25.6679 33.118 25.3992 33.3286 25.1999C33.5391 25.0006 33.8253 24.8868 34.125 24.8831H36.75C36.9489 24.8831 37.1397 24.9569 37.2803 25.0883C37.421 25.2197 37.5 25.3978 37.5 25.5836H37.545Z" fill="#9CA3AF"/>
</svg>
