<svg width="42" height="43" viewBox="0 0 42 43" fill="none" xmlns="http://www.w3.org/2000/svg">
<g clip-path="url(#clip0_190_3120)">
<g clip-path="url(#clip1_190_3120)">
<path d="M38.5014 5.40061C38.4087 5.17637 38.2306 4.99547 38.004 4.89555C37.7775 4.79563 37.52 4.78439 37.2851 4.86415C37.0503 4.94392 36.8561 5.10855 36.7431 5.32381C36.63 5.53906 36.6068 5.78836 36.6781 6.01985C38.1626 10.1636 35.216 13.2583 32.9693 14.9158L32.0616 13.6525C31.7564 13.2288 31.0741 12.8765 30.5436 12.8703L25.4493 12.892C24.827 12.9101 24.2213 13.0914 23.6963 13.4166L8.68513 23.6394C8.33597 23.8781 8.09839 24.2414 8.02442 24.6497C7.95044 25.0581 8.0461 25.4784 8.29044 25.8184L15.1121 35.2979C15.6235 36.004 16.44 35.9187 17.1687 35.4251L32.1799 25.2007C32.6113 24.9043 33.1099 24.2649 33.2857 23.776L34.8804 18.895C35.0562 18.4077 34.9492 17.6643 34.6439 17.2406L34.0911 16.4709C37.108 14.2251 40.24 10.2567 38.5014 5.40061ZM31.5167 19.924C30.958 20.3029 30.2672 20.451 29.5962 20.3357C28.9251 20.2205 28.3285 19.8514 27.9373 19.3094C27.5457 18.7657 27.3922 18.0933 27.5106 17.4398C27.6289 16.7862 28.0094 16.205 28.5685 15.8237C29.0071 15.5261 29.5303 15.3687 30.0653 15.3734C30.6004 15.3781 31.1205 15.5448 31.5535 15.8501C31.1189 16.1046 30.82 16.2536 30.7641 16.2769C30.566 16.3686 30.4059 16.5229 30.31 16.7146C30.214 16.9063 30.188 17.124 30.2361 17.3319C30.2842 17.5399 30.4035 17.7258 30.5747 17.8592C30.7458 17.9926 30.9585 18.0656 31.178 18.0663C31.3165 18.0663 31.4534 18.0358 31.5887 17.9747C31.8997 17.833 32.2294 17.6623 32.5778 17.4626C32.6566 17.9282 32.5989 18.406 32.4112 18.8413C32.2236 19.2766 31.9136 19.6518 31.5167 19.924Z" fill="#9CA3AF"/>
</g>
</g>
<defs>
<clipPath id="clip0_190_3120">
<rect width="41.3333" height="42" fill="white" transform="translate(0.0546875 0.0339355)"/>
</clipPath>
<clipPath id="clip1_190_3120">
<rect width="36" height="36" fill="white" transform="translate(6 -0.188477)"/>
</clipPath>
</defs>
</svg>
