<svg width="42" height="43" viewBox="0 0 42 43" fill="none" xmlns="http://www.w3.org/2000/svg">
<g clip-path="url(#clip0_190_3108)">
<path d="M9 4.58936C9 2.38311 10.7938 0.589355 13 0.589355H23C25.2062 0.589355 27 2.38311 27 4.58936V16.5894H27.5C30.5375 16.5894 33 19.0519 33 22.0894V24.0894C33 24.9206 33.6688 25.5894 34.5 25.5894C35.3312 25.5894 36 24.9206 36 24.0894V14.4644C34.275 14.0206 33 12.4519 33 10.5894V6.87061L31.3875 5.10186C30.8313 4.48936 30.875 3.53936 31.4875 2.98311C32.1 2.42686 33.05 2.47061 33.6063 3.08311L38.0875 8.00811C38.675 8.65186 39 9.48936 39 10.3644V24.0894C39 26.5769 36.9875 28.5894 34.5 28.5894C32.0125 28.5894 30 26.5769 30 24.0894V22.0894C30 20.7081 28.8813 19.5894 27.5 19.5894H27V29.6769C27.5812 29.8831 28 30.4394 28 31.0894C28 31.9206 27.3312 32.5894 26.5 32.5894H9.5C8.66875 32.5894 8 31.9206 8 31.0894C8 30.4331 8.41875 29.8831 9 29.6769V4.58936ZM13 5.58936V11.5894C13 12.1394 13.45 12.5894 14 12.5894H22C22.55 12.5894 23 12.1394 23 11.5894V5.58936C23 5.03936 22.55 4.58936 22 4.58936H14C13.45 4.58936 13 5.03936 13 5.58936Z" fill="#9CA3AF"/>
</g>
<defs>
<clipPath id="clip0_190_3108">
<rect width="41.3333" height="42" fill="white" transform="translate(0.0546875 0.367188)"/>
</clipPath>
</defs>
</svg>
