<svg width="42" height="43" viewBox="0 0 42 43" fill="none" xmlns="http://www.w3.org/2000/svg">
<g clip-path="url(#clip0_190_3104)">
<path d="M31.6667 34.8115H8.33333V16.4782H31.6667M26.6667 4.81152V8.14486H13.3333V4.81152H10V8.14486H8.33333C6.48333 8.14486 5 9.62819 5 11.4782V34.8115C5 35.6956 5.35119 36.5434 5.97631 37.1685C6.60143 37.7937 7.44928 38.1449 8.33333 38.1449H31.6667C32.5507 38.1449 33.3986 37.7937 34.0237 37.1685C34.6488 36.5434 35 35.6956 35 34.8115V11.4782C35 10.5941 34.6488 9.74629 34.0237 9.12117C33.3986 8.49605 32.5507 8.14486 31.6667 8.14486H30V4.81152M28.3333 23.1449H20V31.4782H28.3333V23.1449Z" fill="#9CA3AF"/>
</g>
<defs>
<clipPath id="clip0_190_3104">
<rect width="41.3333" height="42" fill="white" transform="translate(0.0546875 0.256104)"/>
</clipPath>
</defs>
</svg>
