<svg width="157" height="157" viewBox="0 0 157 157" fill="none" xmlns="http://www.w3.org/2000/svg">
<path d="M85.0423 13.4101V26.6243C110.882 29.8297 130.834 51.8097 130.834 78.4997C130.834 99.4984 118.274 117.75 99.9573 126.123L85.0423 111.208V143.916H117.751L109.77 135.936C130.245 124.749 143.917 103.096 143.917 78.4997C143.917 44.6138 118.078 16.6809 85.0423 13.4101ZM71.959 13.083C59.2027 14.3913 47.1007 19.363 37.1573 27.5401L46.4465 36.8293C53.8727 31.1065 62.6691 27.4301 71.959 26.1663V13.083ZM27.4757 37.1563C19.364 47.0997 14.3923 59.2018 13.084 71.958H26.1673C27.4102 62.6688 31.0736 53.8376 36.8302 46.4455L27.4757 37.1563ZM39.2507 52.333V65.4163H58.8757V71.958H52.334C45.1382 71.958 39.2507 77.8455 39.2507 85.0413V104.666H71.959V91.583H52.334V85.0413H58.8757C66.1369 85.0413 71.959 79.2193 71.959 71.958V65.4163C71.959 61.9464 70.5806 58.6186 68.127 56.165C65.6734 53.7114 62.3456 52.333 58.8757 52.333H39.2507ZM78.5007 52.333V85.0413H98.1257V104.666H111.209V85.0413H117.751V71.958H111.209V52.333H98.1257V71.958H91.584V52.333H78.5007ZM13.084 85.0413C14.3923 97.7976 19.4294 109.9 27.6065 119.843L36.8957 110.554C31.1495 103.135 27.4502 94.3375 26.1673 85.0413H13.084ZM46.5119 120.17L37.1573 129.459C47.0966 137.574 59.1953 142.6 71.959 143.916V130.833C62.6805 129.6 53.8975 125.92 46.5119 120.17Z" fill="#0A142F"/>
</svg>
