<svg width="157" height="157" viewBox="0 0 157 157" fill="none" xmlns="http://www.w3.org/2000/svg">
<g clip-path="url(#clip0_373_904)">
<path d="M124.292 52.333C122.439 52.333 120.886 51.705 119.635 50.449C118.383 49.193 117.755 47.6405 117.751 45.7913C117.751 44.9191 117.943 44.0752 118.326 43.2597C118.71 42.4442 119.172 41.7617 119.713 41.2122C121.021 39.9038 124.02 38.432 128.708 36.7966L135.74 34.3434L133.287 41.3757C132.633 43.2292 131.898 45.0281 131.083 46.7726C130.267 48.517 129.53 49.7163 128.871 50.3705C128.326 50.9156 127.646 51.3801 126.83 51.7639C126.015 52.1477 125.169 52.3374 124.292 52.333ZM26.1673 137.375C22.5694 137.375 19.4905 136.095 16.9305 133.535C14.3705 130.975 13.0883 127.894 13.084 124.291V32.708C13.084 29.1101 14.3662 26.0312 16.9305 23.4712C19.4948 20.9112 22.5738 19.629 26.1673 19.6247H65.4173C69.0152 19.6247 72.0964 20.9068 74.6607 23.4712C77.225 26.0355 78.505 29.1145 78.5006 32.708V86.1861C79.4819 85.8591 80.5177 85.5865 81.6079 85.3684C82.6982 85.1504 83.843 85.0413 85.0423 85.0413C90.4937 85.0413 95.1274 86.9493 98.9434 90.7653C102.759 94.5813 104.667 99.215 104.667 104.666V117.75C104.667 119.603 105.295 121.158 106.551 122.414C107.807 123.67 109.36 124.296 111.209 124.291C113.058 124.287 114.613 123.659 115.873 122.407C117.134 121.156 117.759 119.603 117.751 117.75V85.0413H111.209V75.7195C105.321 73.2118 100.579 69.2868 96.9809 63.9445C93.3829 58.6021 91.584 52.5511 91.584 45.7913C91.584 36.742 94.7741 29.0272 101.154 22.6469C107.535 16.2666 115.247 13.0787 124.292 13.083C133.337 13.0874 141.052 16.2775 147.437 22.6535C153.821 29.0294 157.009 36.742 157.001 45.7913C157.001 52.5511 155.202 58.6021 151.604 63.9445C148.006 69.2868 143.263 73.2118 137.376 75.7195V85.0413H130.834V117.75C130.834 123.201 128.926 127.835 125.11 131.651C121.294 135.467 116.66 137.375 111.209 137.375C105.758 137.375 101.124 135.467 97.3079 131.651C93.492 127.835 91.584 123.201 91.584 117.75V104.666C91.584 102.813 90.956 101.26 89.7 100.009C88.444 98.757 86.8914 98.129 85.0423 98.1247C83.1932 98.1203 81.6407 98.7483 80.3847 100.009C79.1287 101.269 78.5006 102.822 78.5006 104.666V124.291C78.5006 127.889 77.2207 130.97 74.6607 133.535C72.1007 136.099 69.0196 137.379 65.4173 137.375H26.1673ZM124.292 65.4163C129.744 65.4163 134.377 63.5084 138.193 59.6924C142.009 55.8764 143.917 51.2427 143.917 45.7913C143.917 40.34 142.009 35.7063 138.193 31.8903C134.377 28.0743 129.744 26.1663 124.292 26.1663C118.841 26.1663 114.207 28.0743 110.391 31.8903C106.575 35.7063 104.667 40.34 104.667 45.7913C104.667 51.2427 106.575 55.8764 110.391 59.6924C114.207 63.5084 118.841 65.4163 124.292 65.4163ZM39.2507 58.8747V40.3945L31.5642 32.708H26.1673V45.7913L39.2507 58.8747ZM52.334 58.8747L65.4173 45.7913V32.708H60.0204L52.334 40.3945V58.8747ZM39.2507 91.583V73.1028L26.1673 60.0195V78.4997L39.2507 91.583ZM52.334 91.583L65.4173 78.4997V60.0195L52.334 73.1028V91.583ZM39.2507 124.291V105.811L26.1673 92.7278V111.208L39.2507 124.291ZM52.334 124.291L65.4173 111.208V92.7278L52.334 105.811V124.291Z" fill="#0A142F"/>
</g>
<defs>
<clipPath id="clip0_373_904">
<rect width="157" height="157" fill="white"/>
</clipPath>
</defs>
</svg>
