<svg width="161" height="161" viewBox="0 0 161 161" fill="none" xmlns="http://www.w3.org/2000/svg">
<path d="M140.875 110.688C140.875 113.237 139.466 115.451 137.32 116.591L84.3238 146.376C83.2505 147.181 81.9088 147.584 80.5 147.584C79.0913 147.584 77.7496 147.181 76.6763 146.376L23.6805 116.591C22.6045 116.027 21.704 115.178 21.0771 114.137C20.4502 113.096 20.1209 111.903 20.125 110.688V50.3128C20.125 47.7637 21.5338 45.5499 23.6805 44.4095L76.6763 14.6245C77.7496 13.8195 79.0913 13.417 80.5 13.417C81.9088 13.417 83.2505 13.8195 84.3238 14.6245L137.32 44.4095C139.466 45.5499 140.875 47.7637 140.875 50.3128V110.688ZM33.5417 60.3753V100.625H41.9271V87.2087H46.9584C50.5167 87.2087 53.9293 85.7951 56.4454 83.279C58.9615 80.7629 60.375 77.3503 60.375 73.792C60.375 70.2337 58.9615 66.8211 56.4454 64.305C53.9293 61.7889 50.5167 60.3753 46.9584 60.3753H33.5417ZM41.9271 80.5003V67.0837H45.2813C47.0604 67.0837 48.7667 67.7904 50.0248 69.0485C51.2829 70.3065 51.9896 72.0128 51.9896 73.792C51.9896 75.5711 51.2829 77.2774 50.0248 78.5355C48.7667 79.7936 47.0604 80.5003 45.2813 80.5003H41.9271ZM65.4063 60.3753V100.625H73.7917V87.2087H78.823L83.2505 100.625H92.1055L86.8059 84.5924C90.093 82.1774 92.2396 78.2195 92.2396 73.792C92.2396 70.2337 90.8261 66.8211 88.31 64.305C85.7939 61.7889 82.3813 60.3753 78.823 60.3753H65.4063ZM73.7917 80.5003V67.0837H77.1459C78.925 67.0837 80.6313 67.7904 81.8894 69.0485C83.1474 70.3065 83.8542 72.0128 83.8542 73.792C83.8542 75.5711 83.1474 77.2774 81.8894 78.5355C80.6313 79.7936 78.925 80.5003 77.1459 80.5003H73.7917ZM114.042 60.3753C104.784 60.3753 97.2709 69.3645 97.2709 80.5003C97.2709 91.6362 104.784 100.625 114.042 100.625C123.299 100.625 130.813 91.6362 130.813 80.5003C130.813 69.3645 123.299 60.3753 114.042 60.3753ZM114.042 68.7607C119.14 68.7607 123.299 73.9932 123.299 80.5003C123.299 87.0074 119.14 92.2399 114.042 92.2399C108.943 92.2399 104.851 87.0074 104.851 80.5003C104.851 73.9932 108.943 68.7607 114.042 68.7607Z" fill="#0A142F"/>
</svg>
