<svg width="150" height="150" viewBox="0 0 150 150" fill="none" xmlns="http://www.w3.org/2000/svg">
<path d="M30.3002 50.1668C33.7875 50.1667 37.2133 49.2487 40.2333 47.505C43.2533 45.7614 45.7611 43.2535 47.5048 40.2334H119.7C122.335 40.2334 124.861 39.1869 126.724 37.324C128.587 35.4612 129.634 32.9346 129.634 30.3001C129.634 27.6656 128.587 25.1391 126.724 23.2762C124.861 21.4133 122.335 20.3668 119.7 20.3668H47.5048C45.761 17.3469 43.2531 14.8392 40.2331 13.0957C37.2131 11.3522 33.7874 10.4343 30.3002 10.4343C26.8131 10.4343 23.3874 11.3522 20.3673 13.0957C17.3473 14.8392 14.8394 17.3469 13.0957 20.3668H30.3002V40.2334H13.0957C14.8393 43.2535 17.3472 45.7614 20.3672 47.505C23.3872 49.2487 26.813 50.1667 30.3002 50.1668ZM21.8172 93.4165C20.8887 94.3473 20.3672 95.6083 20.3669 96.923V134.6C20.3669 135.917 20.8902 137.181 21.8216 138.112C22.753 139.044 24.0163 139.567 25.3336 139.567H40.2336C41.5508 139.567 42.8141 139.044 43.7455 138.112C44.677 137.181 45.2002 135.917 45.2002 134.6V129.633H104.8V134.6C104.8 135.917 105.324 137.181 106.255 138.112C107.186 139.044 108.45 139.567 109.767 139.567H124.667C125.984 139.567 127.247 139.044 128.179 138.112C129.11 137.181 129.634 135.917 129.634 134.6V96.923C129.633 95.6083 129.112 94.3473 128.183 93.4165L119.7 84.9334L106.25 62.5139C105.808 61.7762 105.182 61.1659 104.434 60.7428C103.685 60.3197 102.839 60.0982 101.979 60.1001H48.0213C47.163 60.0999 46.3192 60.3222 45.5724 60.7452C44.8255 61.1683 44.2011 61.7776 43.7599 62.5139L30.3002 84.9334L21.8172 93.4165ZM111.098 89.9001H38.9025L50.8225 70.0334H99.178L111.098 89.9001ZM55.1336 108.058V111.753C55.1336 112.544 54.8196 113.302 54.2607 113.861C53.7019 114.419 52.9439 114.733 52.1536 114.733H33.2802C32.4899 114.733 31.7319 114.419 31.1731 113.861C30.6142 113.302 30.3002 112.544 30.3002 111.753V103.469C30.3004 103.028 30.3985 102.593 30.5873 102.194C30.7761 101.796 31.051 101.444 31.3921 101.165C31.7333 100.886 32.1321 100.685 32.56 100.579C32.9878 100.472 33.434 100.462 33.8663 100.549L51.945 104.164C52.8443 104.346 53.6532 104.832 54.2344 105.542C54.8156 106.252 55.1333 107.141 55.1336 108.058ZM119.7 104.681V111.753C119.7 112.544 119.386 113.302 118.827 113.861C118.269 114.419 117.511 114.733 116.72 114.733H97.8469C97.0566 114.733 96.2986 114.419 95.7397 113.861C95.1809 113.302 94.8669 112.544 94.8669 111.753V107.244C94.8672 106.555 95.1059 105.888 95.5423 105.356C95.9786 104.824 96.5859 104.459 97.2608 104.323L114.942 100.787C115.519 100.671 116.114 100.684 116.685 100.826C117.256 100.968 117.788 101.235 118.243 101.607C118.699 101.98 119.065 102.449 119.317 102.98C119.569 103.512 119.7 104.093 119.7 104.681Z" fill="black"/>
</svg>
