<svg width="140" height="140" viewBox="0 0 140 140" fill="none" xmlns="http://www.w3.org/2000/svg">
<path d="M131.25 26.25V17.5H118.125V8.75H109.375V17.5H105C100.174 17.5 96.25 21.4288 96.25 26.25V35C96.25 39.8256 100.174 43.75 105 43.75H122.5V52.5H96.25V61.25H109.375V70H118.125V61.25H122.5C127.326 61.25 131.25 57.3256 131.25 52.5V43.75C131.25 38.9288 127.326 35 122.5 35H105V26.25H131.25ZM105 87.5V96.25H116.314L100.625 111.939L90.5975 101.907C89.7783 101.087 88.6675 100.626 87.5088 100.625H87.5C86.3413 100.626 85.2305 101.087 84.4113 101.907L61.25 125.064L67.4362 131.25L87.5044 111.186L97.5319 121.218C98.3523 122.038 99.4649 122.499 100.625 122.499C101.785 122.499 102.898 122.038 103.718 121.218L122.5 102.436V113.75H131.25V87.5H105ZM17.5 131.25H8.75V109.375C8.75 92.4875 22.4875 78.75 39.375 78.75H65.625C74.3269 78.75 82.6437 82.4688 88.4494 88.9569L81.9306 94.7931C79.8788 92.4987 77.3659 90.6632 74.5561 89.4064C71.7464 88.1497 68.703 87.5 65.625 87.5H39.375C27.3131 87.5 17.5 97.3131 17.5 109.375V131.25ZM52.5 70C60.6223 70 68.4118 66.7734 74.1551 61.0301C79.8984 55.2868 83.125 47.4973 83.125 39.375C83.125 31.2527 79.8984 23.4632 74.1551 17.7199C68.4118 11.9766 60.6223 8.75 52.5 8.75C44.3777 8.75 36.5882 11.9766 30.8449 17.7199C25.1016 23.4632 21.875 31.2527 21.875 39.375C21.875 47.4973 25.1016 55.2868 30.8449 61.0301C36.5882 66.7734 44.3777 70 52.5 70ZM52.5 17.5C58.3016 17.5 63.8656 19.8047 67.968 23.907C72.0703 28.0094 74.375 33.5734 74.375 39.375C74.375 45.1766 72.0703 50.7406 67.968 54.843C63.8656 58.9453 58.3016 61.25 52.5 61.25C46.6984 61.25 41.1344 58.9453 37.032 54.843C32.9297 50.7406 30.625 45.1766 30.625 39.375C30.625 33.5734 32.9297 28.0094 37.032 23.907C41.1344 19.8047 46.6984 17.5 52.5 17.5Z" fill="black"/>
</svg>
