<svg width="150" height="150" viewBox="0 0 150 150" fill="none" xmlns="http://www.w3.org/2000/svg">
<path d="M75.3125 118.75L93.125 101.094L75.3125 83.4375L68.75 90L75.4687 96.7188C72.5521 96.8229 69.7146 96.3542 66.9562 95.3125C64.1979 94.2708 61.7229 92.6563 59.5312 90.4688C57.4479 88.3854 55.8583 85.9896 54.7625 83.2812C53.6667 80.5729 53.1208 77.8646 53.125 75.1562C53.125 73.3854 53.3604 71.6146 53.8313 69.8438C54.3021 68.0729 54.9521 66.3542 55.7813 64.6875L48.9063 57.8125C47.1354 60.4167 45.8333 63.1771 45 66.0937C44.1667 69.0104 43.75 71.9792 43.75 75C43.75 78.9583 44.5313 82.8646 46.0938 86.7188C47.6563 90.5729 49.9479 94.0104 52.9688 97.0312C55.9896 100.052 59.375 102.319 63.125 103.831C66.875 105.344 70.7292 106.15 74.6875 106.25L68.75 112.188L75.3125 118.75ZM101.094 92.1875C102.865 89.5833 104.167 86.8229 105 83.9063C105.833 80.9896 106.25 78.0208 106.25 75C106.25 71.0417 105.494 67.1083 103.981 63.2C102.469 59.2917 100.204 55.8292 97.1875 52.8125C94.1708 49.7958 90.7583 47.5562 86.95 46.0938C83.1417 44.6313 79.2625 43.9021 75.3125 43.9063L81.25 37.8125L74.6875 31.25L56.875 48.9062L74.6875 66.5625L81.25 60L74.375 53.125C77.1875 53.125 80.0521 53.6729 82.9687 54.7687C85.8854 55.8646 88.3854 57.4521 90.4687 59.5312C92.5521 61.6104 94.1417 64.0063 95.2375 66.7188C96.3333 69.4313 96.8792 72.1396 96.875 74.8438C96.875 76.6146 96.6417 78.3854 96.175 80.1562C95.7083 81.9271 95.0562 83.6458 94.2187 85.3125L101.094 92.1875ZM75 137.5C66.3542 137.5 58.2292 135.858 50.625 132.575C43.0208 129.292 36.4063 124.84 30.7813 119.219C25.1563 113.598 20.7042 106.983 17.425 99.375C14.1458 91.7667 12.5042 83.6417 12.5 75C12.4958 66.3583 14.1375 58.2333 17.425 50.625C20.7125 43.0167 25.1646 36.4021 30.7813 30.7813C36.3979 25.1604 43.0125 20.7083 50.625 17.425C58.2375 14.1417 66.3625 12.5 75 12.5C83.6375 12.5 91.7625 14.1417 99.375 17.425C106.987 20.7083 113.602 25.1604 119.219 30.7813C124.835 36.4021 129.29 43.0167 132.581 50.625C135.873 58.2333 137.512 66.3583 137.5 75C137.487 83.6417 135.846 91.7667 132.575 99.375C129.304 106.983 124.852 113.598 119.219 119.219C113.585 124.84 106.971 129.294 99.375 132.581C91.7792 135.869 83.6542 137.508 75 137.5ZM75 125C88.9583 125 100.781 120.156 110.469 110.469C120.156 100.781 125 88.9583 125 75C125 61.0417 120.156 49.2187 110.469 39.5312C100.781 29.8437 88.9583 25 75 25C61.0417 25 49.2188 29.8437 39.5313 39.5312C29.8438 49.2187 25 61.0417 25 75C25 88.9583 29.8438 100.781 39.5313 110.469C49.2188 120.156 61.0417 125 75 125Z" fill="black"/>
</svg>
